<svg width="200" height="160" viewBox="0 0 200 160" fill="none" xmlns="http://www.w3.org/2000/svg">
<g clip-path="url(#clip0_228_3373)">
<path d="M243.402 56.6875C241.216 103.068 202.921 140 156 140C109.079 140 70.7837 103.068 68.5984 56.6875C68.5331 58.0751 68.5 59.4712 68.5 60.875C68.5 109.2 107.675 148.375 156 148.375C204.325 148.375 243.5 109.2 243.5 60.875C243.5 59.4712 243.467 58.0751 243.402 56.6875Z" fill="white"/>
<path fill-rule="evenodd" clip-rule="evenodd" d="M156 140C204.325 140 243.5 100.825 243.5 52.5C243.5 4.17508 204.325 -35 156 -35C107.675 -35 68.5 4.17508 68.5 52.5C68.5 100.825 107.675 140 156 140ZM156 127.5C197.421 127.5 231 93.9214 231 52.5C231 11.0786 197.421 -22.5 156 -22.5C114.579 -22.5 81 11.0786 81 52.5C81 93.9214 114.579 127.5 156 127.5Z" fill="white"/>
<path d="M231 52.5C231 93.9214 197.421 127.5 156 127.5C114.579 127.5 81 93.9214 81 52.5C81 11.0786 114.579 -22.5 156 -22.5C197.421 -22.5 231 11.0786 231 52.5Z" fill="white"/>
<path d="M156 140C202.921 140 241.216 103.068 243.402 56.6875C243.467 58.0751 243.5 59.4712 243.5 60.875C243.5 109.2 204.325 148.375 156 148.375C107.675 148.375 68.5 109.2 68.5 60.875C68.5 59.4712 68.5331 58.0751 68.5984 56.6875C70.7837 103.068 109.079 140 156 140ZM156 140C204.325 140 243.5 100.825 243.5 52.5C243.5 4.17508 204.325 -35 156 -35C107.675 -35 68.5 4.17508 68.5 52.5C68.5 100.825 107.675 140 156 140ZM231 52.5C231 93.9214 197.421 127.5 156 127.5C114.579 127.5 81 93.9214 81 52.5C81 11.0786 114.579 -22.5 156 -22.5C197.421 -22.5 231 11.0786 231 52.5Z" stroke="black" stroke-opacity="0.08" stroke-width="2.1875"/>
<path d="M153.5 -7.5C153.5 -8.88071 154.619 -10 156 -10C157.381 -10 158.5 -8.88071 158.5 -7.5V-2.5C158.5 -1.11929 157.381 0 156 0C154.619 0 153.5 -1.11929 153.5 -2.5V-7.5Z" fill="black" fill-opacity="0.1"/>
<path d="M111.806 11.8414C110.83 10.8651 110.83 9.28218 111.806 8.30586C112.782 7.32955 114.365 7.32955 115.341 8.30586L118.877 11.8414C119.853 12.8177 119.853 14.4006 118.877 15.3769C117.901 16.3532 116.318 16.3532 115.341 15.3769L111.806 11.8414Z" fill="black" fill-opacity="0.1"/>
<path d="M115.341 96.6942C114.365 97.6705 112.782 97.6705 111.805 96.6942C110.829 95.7179 110.829 94.135 111.805 93.1586L115.341 89.6231C116.317 88.6468 117.9 88.6468 118.877 89.6231C119.853 90.5994 119.853 92.1823 118.877 93.1586L115.341 96.6942Z" fill="black" fill-opacity="0.1"/>
<path d="M92.25 58.75C90.8693 58.75 89.75 57.6307 89.75 56.25C89.75 54.8693 90.8693 53.75 92.25 53.75H97.25C98.6307 53.75 99.75 54.8693 99.75 56.25C99.75 57.6307 98.6307 58.75 97.25 58.75H92.25Z" fill="black" fill-opacity="0.1"/>
<path d="M153.5 107.5C153.5 106.119 154.619 105 156 105C157.381 105 158.5 106.119 158.5 107.5V112.5C158.5 113.881 157.381 115 156 115C154.619 115 153.5 113.881 153.5 112.5V107.5Z" fill="black" fill-opacity="0.1"/>
<path d="M193.123 93.1586C192.147 92.1823 192.147 90.5994 193.123 89.6231C194.099 88.6468 195.682 88.6468 196.659 89.6231L200.194 93.1586C201.17 94.1349 201.17 95.7179 200.194 96.6942C199.218 97.6705 197.635 97.6705 196.659 96.6942L193.123 93.1586Z" fill="black" fill-opacity="0.1"/>
<path d="M214.75 58.75C213.369 58.75 212.25 57.6307 212.25 56.25C212.25 54.8693 213.369 53.75 214.75 53.75H219.75C221.131 53.75 222.25 54.8693 222.25 56.25C222.25 57.6307 221.131 58.75 219.75 58.75H214.75Z" fill="black" fill-opacity="0.1"/>
<path d="M162 52.5C162 56.0899 159.09 59 155.5 59C151.91 59 149 56.0899 149 52.5C149 48.9102 151.91 46 155.5 46C159.09 46 162 48.9102 162 52.5Z" fill="black" fill-opacity="0.02"/>
<path d="M150.214 48.7171L150.033 48.5447C148.914 47.4794 147.106 47.6737 146.239 48.9524L122.18 84.4423C120.595 86.7796 123.495 89.5404 125.752 87.8433L160.021 62.0748C161.256 61.1464 161.361 59.3315 160.242 58.2662L159.537 57.5946C158.428 58.4745 157.025 59 155.5 59C151.91 59 149 56.0899 149 52.5C149 51.0888 149.45 49.7827 150.214 48.7171Z" fill="black" fill-opacity="0.02"/>
<path d="M189.819 20.5581C191.404 18.2208 188.505 15.4601 186.248 17.1571L151.978 42.9256C150.744 43.854 150.638 45.669 151.757 46.7343L152.035 46.9993C153.038 46.3663 154.226 46 155.5 46C159.09 46 162 48.9102 162 52.5C162 53.6598 161.696 54.7486 161.164 55.6913L161.967 56.4557C163.085 57.521 164.893 57.3267 165.76 56.048L189.819 20.5581Z" fill="black" fill-opacity="0.02"/>
<path d="M162 52.5C162 56.0899 159.09 59 155.5 59M162 52.5C162 48.9102 159.09 46 155.5 46M162 52.5C162 53.6598 161.696 54.7486 161.164 55.6913L161.967 56.4557C163.085 57.521 164.893 57.3267 165.76 56.048L189.819 20.5581C191.404 18.2208 188.505 15.4601 186.248 17.1571L151.978 42.9256C150.744 43.854 150.638 45.669 151.757 46.7343L152.035 46.9993C153.038 46.3663 154.226 46 155.5 46M155.5 59C151.91 59 149 56.0899 149 52.5M155.5 59C157.025 59 158.428 58.4745 159.537 57.5946L160.242 58.2662C161.361 59.3315 161.256 61.1464 160.021 62.0748L125.752 87.8433C123.495 89.5404 120.595 86.7796 122.18 84.4423L146.239 48.9524C147.106 47.6737 148.914 47.4794 150.033 48.5447L150.214 48.7171C149.45 49.7827 149 51.0888 149 52.5M149 52.5C149 48.9102 151.91 46 155.5 46" stroke="black" stroke-opacity="0.1" stroke-width="2"/>
</g>
<defs>
<clipPath id="clip0_228_3373">
<rect width="200" height="160" fill="white"/>
</clipPath>
</defs>
</svg>
