<svg width="200" height="160" viewBox="0 0 200 160" fill="none" xmlns="http://www.w3.org/2000/svg">
<g clip-path="url(#clip0_229_2586)">
<path d="M43.0092 120.082C42.6202 124.307 45.6166 128.135 49.8628 128.732L211.405 151.435" stroke="white" stroke-opacity="0.12" stroke-width="2"/>
<path d="M57.5897 -12.0779C58.2046 -16.4531 62.25 -19.5015 66.6253 -18.8866L228.168 3.81669C232.543 4.4316 235.591 8.47694 234.976 12.8522L217.441 137.626C216.826 142.001 212.78 145.05 208.405 144.435L46.8627 121.731C42.4874 121.117 39.439 117.071 40.0539 112.696L57.5897 -12.0779Z" stroke="white" stroke-opacity="0.12" stroke-width="2"/>
<path d="M68.3594 -2.48547L70.3399 -2.20713L70.0616 -0.226591L68.0811 -0.504937L68.3594 -2.48547Z" fill="white" fill-opacity="0.1"/>
<path d="M66.4112 11.3783L68.3917 11.6566L68.1133 13.6371L66.1328 13.3588L66.4112 11.3783Z" fill="white" fill-opacity="0.1"/>
<path d="M64.4629 25.242L66.4435 25.5204L66.1651 27.5009L64.1846 27.2226L64.4629 25.242Z" fill="white" fill-opacity="0.1"/>
<path d="M62.5137 39.1058L64.4942 39.3841L64.2159 41.3646L62.2354 41.0863L62.5137 39.1058Z" fill="white" fill-opacity="0.1"/>
<path d="M60.5655 52.9695L62.546 53.2479L62.2676 55.2284L60.2871 54.9501L60.5655 52.9695Z" fill="white" fill-opacity="0.1"/>
<path d="M58.6172 66.8333L60.5977 67.1116L60.3194 69.0922L58.3389 68.8138L58.6172 66.8333Z" fill="white" fill-opacity="0.1"/>
<path d="M56.669 80.6971L58.6495 80.9754L58.3712 82.9559L56.3906 82.6776L56.669 80.6971Z" fill="white" fill-opacity="0.1"/>
<path d="M54.7207 94.5608L56.7013 94.8391L56.4229 96.8197L54.4424 96.5413L54.7207 94.5608Z" fill="white" fill-opacity="0.1"/>
<path d="M52.7725 108.425L54.753 108.703L54.4747 110.683L52.4941 110.405L52.7725 108.425Z" fill="white" fill-opacity="0.1"/>
<path d="M82.2227 -0.537048L84.2032 -0.258702L83.9249 1.72183L81.9443 1.44349L82.2227 -0.537048Z" fill="white" fill-opacity="0.1"/>
<path d="M80.2744 13.3267L82.255 13.605L81.9766 15.5856L79.9961 15.3072L80.2744 13.3267Z" fill="white" fill-opacity="0.1"/>
<path d="M78.3262 27.1905L80.3067 27.4688L80.0284 29.4493L78.0479 29.171L78.3262 27.1905Z" fill="white" fill-opacity="0.1"/>
<path d="M76.377 41.0542L78.3575 41.3325L78.0792 43.3131L76.0986 43.0347L76.377 41.0542Z" fill="white" fill-opacity="0.1"/>
<path d="M74.4287 54.918L76.4093 55.1963L76.1309 57.1768L74.1504 56.8985L74.4287 54.918Z" fill="white" fill-opacity="0.1"/>
<path d="M72.4815 68.7817L74.462 69.06L74.1837 71.0406L72.2031 70.7622L72.4815 68.7817Z" fill="white" fill-opacity="0.1"/>
<path d="M70.5332 82.6455L72.5138 82.9238L72.2354 84.9044L70.2549 84.626L70.5332 82.6455Z" fill="white" fill-opacity="0.1"/>
<path d="M68.585 96.5092L70.5655 96.7876L70.2872 98.7681L68.3066 98.4898L68.585 96.5092Z" fill="white" fill-opacity="0.1"/>
<path d="M66.6367 110.373L68.6173 110.651L68.3389 112.632L66.3584 112.354L66.6367 110.373Z" fill="white" fill-opacity="0.1"/>
<path d="M96.0869 1.41136L98.0675 1.6897L97.7891 3.67024L95.8086 3.39189L96.0869 1.41136Z" fill="white" fill-opacity="0.1"/>
<path d="M82.4483 98.4576L84.4288 98.736L84.1505 100.716L82.1699 100.438L82.4483 98.4576Z" fill="white" fill-opacity="0.1"/>
<path d="M80.5 112.321L82.4806 112.6L82.2022 114.58L80.2217 114.302L80.5 112.321Z" fill="white" fill-opacity="0.1"/>
<path d="M109.95 3.3598L111.931 3.63815L111.652 5.61869L109.672 5.34034L109.95 3.3598Z" fill="white" fill-opacity="0.1"/>
<path d="M96.3115 100.406L98.2921 100.684L98.0137 102.665L96.0332 102.387L96.3115 100.406Z" fill="white" fill-opacity="0.1"/>
<path d="M94.3633 114.27L96.3438 114.548L96.0655 116.529L94.085 116.25L94.3633 114.27Z" fill="white" fill-opacity="0.1"/>
<path d="M123.814 5.30823L125.795 5.58657L125.517 7.56711L123.536 7.28876L123.814 5.30823Z" fill="white" fill-opacity="0.1"/>
<path d="M110.176 102.354L112.156 102.633L111.878 104.613L109.897 104.335L110.176 102.354Z" fill="white" fill-opacity="0.1"/>
<path d="M108.228 116.218L110.208 116.497L109.93 118.477L107.949 118.199L108.228 116.218Z" fill="white" fill-opacity="0.1"/>
<path d="M137.678 7.25665L139.658 7.535L139.38 9.51554L137.399 9.23719L137.678 7.25665Z" fill="white" fill-opacity="0.1"/>
<path d="M124.039 104.303L126.02 104.581L125.741 106.562L123.761 106.283L124.039 104.303Z" fill="white" fill-opacity="0.1"/>
<path d="M122.091 118.167L124.071 118.445L123.793 120.426L121.812 120.147L122.091 118.167Z" fill="white" fill-opacity="0.1"/>
<path d="M151.542 9.20506L153.523 9.4834L153.244 11.4639L151.264 11.1856L151.542 9.20506Z" fill="white" fill-opacity="0.1"/>
<path d="M137.903 106.251L139.884 106.53L139.606 108.51L137.625 108.232L137.903 106.251Z" fill="white" fill-opacity="0.1"/>
<path d="M135.955 120.115L137.936 120.393L137.657 122.374L135.677 122.096L135.955 120.115Z" fill="white" fill-opacity="0.1"/>
<path d="M165.405 11.1535L167.386 11.4319L167.107 13.4124L165.127 13.134L165.405 11.1535Z" fill="white" fill-opacity="0.1"/>
<path d="M163.457 25.0172L165.438 25.2956L165.159 27.2761L163.179 26.9978L163.457 25.0172Z" fill="white" fill-opacity="0.1"/>
<path d="M155.663 80.4723L157.644 80.7506L157.365 82.7312L155.385 82.4528L155.663 80.4723Z" fill="white" fill-opacity="0.1"/>
<path d="M153.715 94.336L155.695 94.6144L155.417 96.5949L153.437 96.3166L153.715 94.336Z" fill="white" fill-opacity="0.1"/>
<path d="M151.767 108.2L153.747 108.478L153.469 110.459L151.488 110.18L151.767 108.2Z" fill="white" fill-opacity="0.1"/>
<path d="M149.818 122.064L151.799 122.342L151.521 124.322L149.54 124.044L149.818 122.064Z" fill="white" fill-opacity="0.1"/>
<path d="M179.27 13.1019L181.25 13.3803L180.972 15.3608L178.991 15.0825L179.27 13.1019Z" fill="white" fill-opacity="0.1"/>
<path d="M177.321 26.9657L179.302 27.244L179.024 29.2246L177.043 28.9462L177.321 26.9657Z" fill="white" fill-opacity="0.1"/>
<path d="M169.527 82.4207L171.508 82.6991L171.23 84.6796L169.249 84.4012L169.527 82.4207Z" fill="white" fill-opacity="0.1"/>
<path d="M167.579 96.2845L169.56 96.5628L169.281 98.5434L167.301 98.265L167.579 96.2845Z" fill="white" fill-opacity="0.1"/>
<path d="M165.631 110.148L167.611 110.427L167.333 112.407L165.353 112.129L165.631 110.148Z" fill="white" fill-opacity="0.1"/>
<path d="M163.683 124.012L165.663 124.29L165.385 126.271L163.404 125.992L163.683 124.012Z" fill="white" fill-opacity="0.1"/>
<path d="M193.133 15.0503L195.113 15.3287L194.835 17.3092L192.854 17.0309L193.133 15.0503Z" fill="white" fill-opacity="0.1"/>
<path d="M191.185 28.9141L193.165 29.1924L192.887 31.1729L190.906 30.8946L191.185 28.9141Z" fill="white" fill-opacity="0.1"/>
<path d="M183.391 84.3691L185.371 84.6474L185.093 86.628L183.112 86.3496L183.391 84.3691Z" fill="white" fill-opacity="0.1"/>
<path d="M183.391 84.3691L185.371 84.6474L185.093 86.628L183.112 86.3496L183.391 84.3691Z" fill="white" fill-opacity="0.1"/>
<path d="M181.442 98.2329L183.423 98.5112L183.145 100.492L181.164 100.213L181.442 98.2329Z" fill="white" fill-opacity="0.1"/>
<path d="M181.442 98.2329L183.423 98.5112L183.145 100.492L181.164 100.213L181.442 98.2329Z" fill="white" fill-opacity="0.1"/>
<path d="M179.494 112.097L181.475 112.375L181.196 114.355L179.216 114.077L179.494 112.097Z" fill="white" fill-opacity="0.1"/>
<path d="M179.494 112.097L181.475 112.375L181.196 114.355L179.216 114.077L179.494 112.097Z" fill="white" fill-opacity="0.1"/>
<path d="M177.546 125.96L179.526 126.239L179.248 128.219L177.268 127.941L177.546 125.96Z" fill="white" fill-opacity="0.1"/>
<path d="M177.546 125.96L179.526 126.239L179.248 128.219L177.268 127.941L177.546 125.96Z" fill="white" fill-opacity="0.1"/>
<path d="M93.3036 21.2166C93.7648 17.9352 96.7988 15.6489 100.08 16.11L146.623 22.6512C149.904 23.1124 152.191 26.1464 151.729 29.4278L149.224 47.2527C148.763 50.5341 145.729 52.8204 142.448 52.3592L95.9051 45.8181C92.6236 45.3569 90.3373 42.3229 90.7985 39.0414L93.3036 21.2166Z" fill="white" fill-opacity="0.02"/>
<path d="M160.674 44.8225C161.135 41.541 164.169 39.2547 167.451 39.7159L213.993 46.2571C217.275 46.7182 219.561 49.7522 219.1 53.0337L216.595 70.8585C216.133 74.14 213.099 76.4263 209.818 75.9651L163.275 69.424C159.994 68.9628 157.708 65.9288 158.169 62.6473L160.674 44.8225Z" fill="white" fill-opacity="0.02"/>
<path d="M87.4579 62.8079C87.9191 59.5264 90.9531 57.2401 94.2346 57.7013L140.777 64.2425C144.059 64.7036 146.345 67.7376 145.884 71.0191L143.379 88.8439C142.917 92.1254 139.883 94.4117 136.602 93.9505L90.0594 87.4094C86.7779 86.9482 84.4916 83.9142 84.9528 80.6327L87.4579 62.8079Z" fill="white" fill-opacity="0.02"/>
<path d="M99.9411 17.1003L146.484 23.6414C149.218 24.0258 151.123 26.5541 150.739 29.2887L148.234 47.1135C147.85 49.848 145.321 51.7533 142.587 51.369L96.0442 44.8278C93.3097 44.4435 91.4045 41.9152 91.7888 39.1806L94.2939 21.3558C94.6782 18.6212 97.2065 16.716 99.9411 17.1003ZM167.311 40.7062L213.854 47.2473C216.589 47.6316 218.494 50.16 218.11 52.8945L215.604 70.7194C215.22 73.4539 212.692 75.3591 209.957 74.9748L163.415 68.4337C160.68 68.0494 158.775 65.521 159.159 62.7865L161.664 44.9617C162.049 42.2271 164.577 40.3219 167.311 40.7062ZM94.0954 58.6916L140.638 65.2327C143.373 65.617 145.278 68.1454 144.893 70.8799L142.388 88.7048C142.004 91.4393 139.476 93.3446 136.741 92.9602L90.1986 86.4191C87.464 86.0348 85.5588 83.5064 85.9431 80.7719L88.4482 62.9471C88.8325 60.2125 91.3609 58.3073 94.0954 58.6916Z" stroke="white" stroke-opacity="0.12" stroke-width="2"/>
</g>
<defs>
<clipPath id="clip0_229_2586">
<rect width="200" height="160" fill="white"/>
</clipPath>
</defs>
</svg>
